# xmcd
# 
# Track frame offsets:
#     150
#     25912
#     92380
#     121292
#     170197
# 
# Disc length: 2645
# 
# Revision: 1
# Processed by: cddbd v1.5.2PL0 Copyright (c) Steve Scherf et al.
# Submitted via: BonkEnc v1.0.8
# 
DISCID=370a5305
DTITLE=Joachim Kühn - Snow In The Desert
DYEAR=1980
DGENRE=Contemporary Jazz
TTITLE0=Morning Dew
TTITLE1=Snow In The Desert
TTITLE2=Skyrider
TTITLE3=Mushrooms
TTITLE4=Onkel Pö
EXTD=YEAR: 1980
EXTT0=
EXTT1=
EXTT2=
EXTT3=
EXTT4=
PLAYORDER=
